<?xml version="1.0" encoding="UTF-8" standalone="no"?>
<!-- Created with Inkscape (http://www.inkscape.org/) -->

<svg
   version="1.1"
   id="svg2"
   xml:space="preserve"
   width="1348.3066"
   height="395.79999"
   viewBox="0 0 1348.3066 395.79999"
   sodipodi:docname="scama_logo_blue.svg"
   inkscape:version="1.2.1 (9c6d41e410, 2022-07-14)"
   xmlns:inkscape="http://www.inkscape.org/namespaces/inkscape"
   xmlns:sodipodi="http://sodipodi.sourceforge.net/DTD/sodipodi-0.dtd"
   xmlns="http://www.w3.org/2000/svg"
   xmlns:svg="http://www.w3.org/2000/svg"><defs
     id="defs6" /><sodipodi:namedview
     id="namedview4"
     pagecolor="#ffffff"
     bordercolor="#666666"
     borderopacity="1.0"
     inkscape:pageshadow="2"
     inkscape:pageopacity="0.0"
     inkscape:pagecheckerboard="0"
     inkscape:showpageshadow="2"
     inkscape:deskcolor="#d1d1d1"
     showgrid="false"
     inkscape:zoom="0.89742197"
     inkscape:cx="674.15332"
     inkscape:cy="109.20169"
     inkscape:window-width="1920"
     inkscape:window-height="1017"
     inkscape:window-x="-8"
     inkscape:window-y="-8"
     inkscape:window-maximized="1"
     inkscape:current-layer="g8" /><g
     id="g8"
     inkscape:groupmode="layer"
     inkscape:label="ink_ext_XXXXXX"
     transform="matrix(1.3333333,0,0,-1.3333333,0,395.8)"><g
       id="g10"
       transform="scale(0.1)"
       style="fill:#2e4075;fill-opacity:1"><path
         d="m 5053.47,1735.38 -201.61,-601.54 h 403.19 l -201.58,601.54 M 4083.28,15.2305 0,1012 c 1.65625,9.1 3.3125,18.2 4.96484,27.29 C 1259.83,884.391 2515,731.531 3196.47,649.949 c 681.51,-81.597 789.35,-91.898 849.51,-97.59 60.17,-5.73 72.63,-6.879 85.13,-7.078 36.36,-0.359 73.41,5.66 110.32,19.231 11.17,6.258 22.66,14.879 33.46,27.519 3.24,3.66 6.41,7.367 10.59,14.91 4.2,7.528 9.39,18.891 15.16,31.539 5.77,12.649 12.07,26.59 143.38,415.09 131.34,388.48 387.68,1151.52 642.86,1914.89 226.06,-751.8 452.13,-1503.58 572.25,-1895.74 120.13,-392.13 134.32,-424.618 148.51,-457.118 8.61,-15.59 19.61,-30.922 37.03,-46.551 42.98,-22.59 87.29,-29.762 132.48,-24.121 78.6,6.23 157.19,13.441 235.71,22.769 l 3895.34,463.721 c 1.4,-9.15 4.3,-18.33 4.1,-27.5 C 8737.08,670.582 7361.76,338.461 5986.29,7.62109 5922.41,-4.23047 5857.61,-2.46094 5792.54,14.3789 c -21.03,6.8633 -41.53,15.4609 -61.17,25.6328 -19.68,10.1797 -38.51,21.9492 -56.3,35.1367 -17.76,13.2032 -34.47,27.8396 -49.9,43.7106 -39.34,41.172 -68.05,86.352 -96.27,131.86 -16.77,27.75 -32.33,56.261 -54.61,113.062 -22.25,56.84 -51.23,141.969 -80.11,233.418 -28.87,91.481 -57.67,189.332 -84.34,287.731 h -512.99 c -19.17,-74.84 -38.97,-149.52 -54.93,-208.192 -15.97,-58.668 -28.11,-101.308 -40.11,-139.09 -12,-37.777 -23.85,-70.687 -35.54,-101.07 -11.69,-30.398 -23.23,-58.289 -32.9,-80.359 -19.08,-43.598 -34,-70.731 -55.35,-105.91 -20.05,-32.911 -44.38,-67.528 -73.28,-100.368 C 4478,119.48 4452.32,94.6016 4428.31,77.0195 4317.1,-3.69141 4200.29,-13.5898 4083.28,15.2305 v 0"
         style="fill:#2e4075;fill-opacity:1;fill-rule:evenodd;stroke:none"
         id="path12" /><path
         d="M 6010.5,817.391 H 5786.98 V 2237.71 l 380.97,-114.81 174.77,-787.33 181.87,675.57 380.99,-118.86 V 821.422 h -223.5 V 1461.4 L 6517.5,821.422 H 6175.09 L 6010.5,1461.4 V 817.391"
         style="fill:#2e4075;fill-opacity:1;fill-rule:evenodd;stroke:none"
         id="path14" /><path
         d="m 7601.52,1314.15 -80.25,-136.12 h 160.49 l -80.24,136.12 m -97.53,385.09 262.12,-80.26 394.18,-797.558 h -293.62 l -73.16,160.527 h -356.58 l -87.38,-160.527 h -307.86 l 462.3,877.818"
         style="fill:#2e4075;fill-opacity:1;fill-rule:evenodd;stroke:none"
         id="path16" /><path
         d="m 2134.19,1155.74 c 47.98,6.43 95.95,12.85 143.94,19.23 6.04,-11.61 12.36,-23.05 18.06,-32.86 5.68,-9.79 10.74,-17.94 15.56,-25.01 12.41,-18.79 29.45,-35.41 45.04,-46.68 59.17,-40.53 123.73,-51.07 186.94,-43.24 9.15,0.99 18.27,2.26 26.25,3.5 31.47,5.19 52.7,9.03 79.23,34.85 17.82,28.64 39.4,68.43 -0.06,103.86 -26.65,19.35 -55.2,26.23 -81.6,31.22 -8.93,1.47 -18.5,2.55 -31.5,3.3 -12.99,0.71 -29.35,1.1 -63.47,0.91 -34.12,-0.18 -85.98,-0.91 -137.84,-2.13 -35.04,5.65 -70.4,14.83 -106.08,33.27 -25.63,14.37 -50.41,31.42 -75.5,57.09 -21.53,23.68 -37.71,49.49 -50.92,76.71 -28.3,62.85 -27.85,127.91 -10.7,192.91 6.07,22.03 16.65,47.25 30.15,69.92 12.49,19.52 25.57,36.58 44.57,55.37 5.65,5.57 11.58,10.84 17.51,16.12 72.57,56.37 147.62,84.13 223.44,95.16 54.29,6.16 111.03,5.85 169.69,0.83 26.97,-4.74 53.94,-9.48 78.44,-15.01 24.5,-5.54 46.52,-11.85 68.55,-18.16 17.98,-6.33 35.98,-12.66 52.02,-19.61 16.02,-6.94 30.08,-14.49 44.13,-22.04 25.08,-15.35 50.17,-30.7 73.93,-49.24 23.76,-18.52 46.21,-40.25 68.64,-61.97 24.66,-28.09 45.93,-55.61 63.01,-82.46 l -247.93,-55.88 c -30.65,27.2 -60.25,51.5 -88.44,71.56 -69.76,48.38 -132.13,70.84 -195.77,62.44 -20.26,-2.75 -40.71,-8.66 -61.12,-18.8 -24.1,-16.94 -39.15,-45.47 -42.37,-69.32 -1.61,-19.52 -4.49,-38.85 7.75,-59.05 11.61,-16.1 26.48,-25.08 40.22,-29.56 14.03,-3.59 28.31,-6.16 46.66,-8.1 18.36,-1.93 40.8,-3.23 78.64,-3.2 37.84,0.05 91.11,1.45 144.28,4.11 36.14,0.15 72.24,-1.9 108.28,-6.22 23.03,-2.83 46.58,-10.01 65.3,-18.3 23.16,-10.35 42.86,-21.42 67.65,-41.95 38.05,-29.72 62.7,-74.73 75.56,-108.76 17.2,-48.03 18.37,-97.51 2.09,-147.32 -13.44,-36.98 -32.98,-73.06 -60.33,-108.152 -33.2,-34.988 -66.89,-64.117 -101.06,-88.027 -66.55,-45.832 -136.23,-71.492 -206.4,-82.821 -39.69,-5.261 -77.93,-8.269 -114.22,-7.8 -51.72,2.468 -102.11,8.371 -150.9,18.82 -43.56,10.32 -85.76,23.75 -126.13,41.691 -23.06,11.207 -46.13,22.411 -66.59,33.95 -20.46,11.531 -38.33,23.398 -56.21,35.269 -14.06,10.121 -27.55,21.059 -40.57,32.918 -25.07,22.972 -49.93,50.612 -69.01,76.282 -19.58,26.41 -32.59,52.15 -44.72,81.08 47.98,6.45 95.96,12.89 143.92,19.31 l -0.01,-0.01"
         style="fill:#2e4075;fill-opacity:1;fill-rule:evenodd;stroke:none"
         id="path18" /><path
         d="m 4412.22,1309.71 c -9.63,-54.53 -30.38,-112.13 -61.77,-167.31 -12.41,-21.7 -26.3,-42.56 -41.53,-62.39 -13.87,-17.11 -27.75,-34.21 -41.45,-49.01 -33.51,-35.988 -69.35,-63.809 -103.27,-89.328 -20.25,-14.774 -39.64,-26.91 -59.03,-39.051 -34.43,-18.5 -68.84,-36.992 -104.99,-50.68 -36.16,-13.711 -74.05,-22.589 -111.92,-31.48 -26.61,-4.82 -53.29,-8.371 -80.05,-10.66 -48.87,-1.91 -96.53,0.679 -142.73,9.148 -44.61,9.539 -87.7,23.051 -128.79,42.52 -22.56,11.769 -45.15,23.59 -65.01,35.801 -19.86,12.21 -37.02,24.851 -54.17,37.48 -18.16,15.051 -35.59,31 -50.35,46.039 -14.72,15.07 -26.78,29.221 -37.25,42.091 -10.47,12.85 -19.34,24.42 -29.3,39.54 -21.03,31.95 -43.21,73.54 -59.04,111.76 -34.79,83.54 -51.85,168 -54.13,253.07 0.16,32.73 0.31,65.47 2.05,95.44 1.72,29.96 5.03,57.16 8.31,84.35 6.38,29.12 12.74,58.24 20.24,84.5 7.5,26.25 16.13,49.65 24.73,73.03 9.9,21.87 19.77,43.72 30.33,62.95 10.57,19.25 21.83,35.85 33.07,52.44 23.79,32.83 50.49,64.83 81,95.86 18.15,15.77 36.29,31.55 51.48,43.6 15.16,12.06 27.38,20.4 39.58,28.75 153.06,96.34 315.18,118.09 476.1,90.39 57.26,-9.6 115.14,-27.19 171.57,-54.08 51.79,-25.04 99.56,-54.66 148.17,-97.48 22.38,-20.61 42.99,-43.13 61.56,-67.22 18.57,-24.1 35.08,-49.79 49.29,-76.68 14.22,-26.9 26.13,-55.01 35.6,-83.92 l -332.25,-52.84 c -18.47,58.76 -39.27,118.58 -107.32,180.24 -82.55,65.46 -158.07,80.75 -240.47,50.97 -16.11,-7.36 -32.22,-14.73 -46.21,-22.83 -14,-8.13 -25.88,-16.96 -37.75,-25.82 -12.96,-11.85 -25.37,-24.31 -35.14,-35.01 -9.76,-10.71 -16.87,-19.69 -25.06,-31.58 -20.38,-29.11 -40.54,-68.12 -55.09,-102.9 -14.02,-38.9 -25.91,-78.58 -34.81,-115.55 -8.9,-36.97 -14.82,-71.21 -18.08,-104.24 -8.57,-92.77 0.13,-179.32 32.55,-268.08 6.65,-15.85 13.86,-31.49 20.64,-44.93 17.64,-34.84 35.97,-62.09 66.05,-92.88 44.87,-44.95 84.07,-64.57 127.09,-71.54 17.11,-2.56 34.59,-2.93 51.9,-0.78 8.62,1.08 17.13,2.77 28.46,5.59 30.92,8.14 73.29,19.51 113.3,40.89 8.26,4.59 16.15,9.82 24.02,15.05 14.01,10.97 28.02,21.96 39.81,33.14 11.79,11.18 21.38,22.56 30.95,33.92 17.83,25.26 31.25,48.35 39.52,69.32 8.84,21.58 16.24,46.02 21.59,70.45 l 332.22,48.79 c -1.24,-9.62 -2.57,-19.24 -4.24,-28.87 l 0.02,0.02"
         style="fill:#2e4075;fill-opacity:1;fill-rule:evenodd;stroke:none"
         id="path20" /></g></g></svg>
